<mxfile host="app.diagrams.net" agent="Mozilla/5.0 (Windows NT 10.0; Win64; x64) AppleWebKit/537.36 (KHTML, like Gecko) Chrome/130.0.0.0 Safari/537.36" version="24.8.2">
  <diagram id="C5RBs43oDa-KdzZeNtuy" name="Page-1">
    <mxGraphModel dx="794" dy="454" grid="1" gridSize="10" guides="1" tooltips="1" connect="1" arrows="1" fold="1" page="1" pageScale="1" pageWidth="827" pageHeight="1169" math="0" shadow="0">
      <root>
        <mxCell id="WIyWlLk6GJQsqaUBKTNV-0" />
        <mxCell id="WIyWlLk6GJQsqaUBKTNV-1" parent="WIyWlLk6GJQsqaUBKTNV-0" />
        <mxCell id="zkfFHV4jXpPFQw0GAbJ--17" value="PrimaryWindow" style="swimlane;fontStyle=0;align=center;verticalAlign=top;childLayout=stackLayout;horizontal=1;startSize=26;horizontalStack=0;resizeParent=1;resizeLast=0;collapsible=1;marginBottom=0;rounded=0;shadow=0;strokeWidth=1;" parent="WIyWlLk6GJQsqaUBKTNV-1" vertex="1">
          <mxGeometry x="10" y="50" width="160" height="164" as="geometry">
            <mxRectangle x="550" y="140" width="160" height="26" as="alternateBounds" />
          </mxGeometry>
        </mxCell>
        <mxCell id="zkfFHV4jXpPFQw0GAbJ--22" value="- main &#xa;" style="text;align=left;verticalAlign=top;spacingLeft=4;spacingRight=4;overflow=hidden;rotatable=0;points=[[0,0.5],[1,0.5]];portConstraint=eastwest;rounded=0;shadow=0;html=0;" parent="zkfFHV4jXpPFQw0GAbJ--17" vertex="1">
          <mxGeometry y="26" width="160" height="26" as="geometry" />
        </mxCell>
        <mxCell id="zkfFHV4jXpPFQw0GAbJ--24" value="- sidebar: OrderPanel()" style="text;align=left;verticalAlign=top;spacingLeft=4;spacingRight=4;overflow=hidden;rotatable=0;points=[[0,0.5],[1,0.5]];portConstraint=eastwest;" parent="zkfFHV4jXpPFQw0GAbJ--17" vertex="1">
          <mxGeometry y="52" width="160" height="26" as="geometry" />
        </mxCell>
        <mxCell id="zkfFHV4jXpPFQw0GAbJ--23" value="" style="line;html=1;strokeWidth=1;align=left;verticalAlign=middle;spacingTop=-1;spacingLeft=3;spacingRight=3;rotatable=0;labelPosition=right;points=[];portConstraint=eastwest;" parent="zkfFHV4jXpPFQw0GAbJ--17" vertex="1">
          <mxGeometry y="78" width="160" height="8" as="geometry" />
        </mxCell>
        <mxCell id="s01bNbvJfiu_EaBTNAyS-0" value="+ load_menu_panel()" style="text;align=left;verticalAlign=top;spacingLeft=4;spacingRight=4;overflow=hidden;rotatable=0;points=[[0,0.5],[1,0.5]];portConstraint=eastwest;" parent="zkfFHV4jXpPFQw0GAbJ--17" vertex="1">
          <mxGeometry y="86" width="160" height="26" as="geometry" />
        </mxCell>
        <mxCell id="s01bNbvJfiu_EaBTNAyS-1" value="+ load_panel(panel)" style="text;align=left;verticalAlign=top;spacingLeft=4;spacingRight=4;overflow=hidden;rotatable=0;points=[[0,0.5],[1,0.5]];portConstraint=eastwest;" parent="zkfFHV4jXpPFQw0GAbJ--17" vertex="1">
          <mxGeometry y="112" width="160" height="26" as="geometry" />
        </mxCell>
        <mxCell id="rUo7-Wu-Zcv8M0IQZXfz-0" value="+ save_item(item)" style="text;align=left;verticalAlign=top;spacingLeft=4;spacingRight=4;overflow=hidden;rotatable=0;points=[[0,0.5],[1,0.5]];portConstraint=eastwest;" parent="zkfFHV4jXpPFQw0GAbJ--17" vertex="1">
          <mxGeometry y="138" width="160" height="26" as="geometry" />
        </mxCell>
        <mxCell id="yfGy1YuE3UhsHDderf7L-0" value="MenuPanel" style="swimlane;fontStyle=0;align=center;verticalAlign=top;childLayout=stackLayout;horizontal=1;startSize=26;horizontalStack=0;resizeParent=1;resizeLast=0;collapsible=1;marginBottom=0;rounded=0;shadow=0;strokeWidth=1;" parent="WIyWlLk6GJQsqaUBKTNV-1" vertex="1">
          <mxGeometry x="210" y="50" width="210" height="150" as="geometry">
            <mxRectangle x="550" y="140" width="160" height="26" as="alternateBounds" />
          </mxGeometry>
        </mxCell>
        <mxCell id="yfGy1YuE3UhsHDderf7L-1" value="- master:  PrimaryWindow" style="text;align=left;verticalAlign=top;spacingLeft=4;spacingRight=4;overflow=hidden;rotatable=0;points=[[0,0.5],[1,0.5]];portConstraint=eastwest;" parent="yfGy1YuE3UhsHDderf7L-0" vertex="1">
          <mxGeometry y="26" width="210" height="26" as="geometry" />
        </mxCell>
        <mxCell id="yfGy1YuE3UhsHDderf7L-6" value="" style="line;html=1;strokeWidth=1;align=left;verticalAlign=middle;spacingTop=-1;spacingLeft=3;spacingRight=3;rotatable=0;labelPosition=right;points=[];portConstraint=eastwest;" parent="yfGy1YuE3UhsHDderf7L-0" vertex="1">
          <mxGeometry y="52" width="210" height="8" as="geometry" />
        </mxCell>
        <mxCell id="yfGy1YuE3UhsHDderf7L-7" value="+ load_entree_panel(str, Entree)" style="text;align=left;verticalAlign=top;spacingLeft=4;spacingRight=4;overflow=hidden;rotatable=0;points=[[0,0.5],[1,0.5]];portConstraint=eastwest;" parent="yfGy1YuE3UhsHDderf7L-0" vertex="1">
          <mxGeometry y="60" width="210" height="26" as="geometry" />
        </mxCell>
        <mxCell id="s01bNbvJfiu_EaBTNAyS-2" value="+ load_side_panel(str, Side)" style="text;align=left;verticalAlign=top;spacingLeft=4;spacingRight=4;overflow=hidden;rotatable=0;points=[[0,0.5],[1,0.5]];portConstraint=eastwest;" parent="yfGy1YuE3UhsHDderf7L-0" vertex="1">
          <mxGeometry y="86" width="210" height="26" as="geometry" />
        </mxCell>
        <mxCell id="s01bNbvJfiu_EaBTNAyS-3" value="+ load_drink_panel(str, Drink)" style="text;align=left;verticalAlign=top;spacingLeft=4;spacingRight=4;overflow=hidden;rotatable=0;points=[[0,0.5],[1,0.5]];portConstraint=eastwest;" parent="yfGy1YuE3UhsHDderf7L-0" vertex="1">
          <mxGeometry y="112" width="210" height="26" as="geometry" />
        </mxCell>
        <mxCell id="s01bNbvJfiu_EaBTNAyS-69" style="edgeStyle=orthogonalEdgeStyle;rounded=0;orthogonalLoop=1;jettySize=auto;html=1;exitX=0.5;exitY=0;exitDx=0;exitDy=0;entryX=0.25;entryY=0;entryDx=0;entryDy=0;startArrow=classic;startFill=1;" parent="WIyWlLk6GJQsqaUBKTNV-1" source="s01bNbvJfiu_EaBTNAyS-4" target="zkfFHV4jXpPFQw0GAbJ--17" edge="1">
          <mxGeometry relative="1" as="geometry" />
        </mxCell>
        <mxCell id="s01bNbvJfiu_EaBTNAyS-4" value="OrderPanel(master)" style="swimlane;fontStyle=0;align=center;verticalAlign=top;childLayout=stackLayout;horizontal=1;startSize=26;horizontalStack=0;resizeParent=1;resizeLast=0;collapsible=1;marginBottom=0;rounded=0;shadow=0;strokeWidth=1;" parent="WIyWlLk6GJQsqaUBKTNV-1" vertex="1">
          <mxGeometry x="460" y="50" width="210" height="294" as="geometry">
            <mxRectangle x="550" y="140" width="160" height="26" as="alternateBounds" />
          </mxGeometry>
        </mxCell>
        <mxCell id="s01bNbvJfiu_EaBTNAyS-5" value="- master: PrimaryWindow" style="text;align=left;verticalAlign=top;spacingLeft=4;spacingRight=4;overflow=hidden;rotatable=0;points=[[0,0.5],[1,0.5]];portConstraint=eastwest;" parent="s01bNbvJfiu_EaBTNAyS-4" vertex="1">
          <mxGeometry y="26" width="210" height="26" as="geometry" />
        </mxCell>
        <mxCell id="s01bNbvJfiu_EaBTNAyS-10" value="- order_number: tk.Label" style="text;align=left;verticalAlign=top;spacingLeft=4;spacingRight=4;overflow=hidden;rotatable=0;points=[[0,0.5],[1,0.5]];portConstraint=eastwest;" parent="s01bNbvJfiu_EaBTNAyS-4" vertex="1">
          <mxGeometry y="52" width="210" height="26" as="geometry" />
        </mxCell>
        <mxCell id="s01bNbvJfiu_EaBTNAyS-11" value="- order_list: Treeview" style="text;align=left;verticalAlign=top;spacingLeft=4;spacingRight=4;overflow=hidden;rotatable=0;points=[[0,0.5],[1,0.5]];portConstraint=eastwest;" parent="s01bNbvJfiu_EaBTNAyS-4" vertex="1">
          <mxGeometry y="78" width="210" height="26" as="geometry" />
        </mxCell>
        <mxCell id="s01bNbvJfiu_EaBTNAyS-12" value="+ order_label: tk.Label" style="text;align=left;verticalAlign=top;spacingLeft=4;spacingRight=4;overflow=hidden;rotatable=0;points=[[0,0.5],[1,0.5]];portConstraint=eastwest;" parent="s01bNbvJfiu_EaBTNAyS-4" vertex="1">
          <mxGeometry y="104" width="210" height="26" as="geometry" />
        </mxCell>
        <mxCell id="s01bNbvJfiu_EaBTNAyS-13" value="+ edit_button: tk.Button" style="text;align=left;verticalAlign=top;spacingLeft=4;spacingRight=4;overflow=hidden;rotatable=0;points=[[0,0.5],[1,0.5]];portConstraint=eastwest;" parent="s01bNbvJfiu_EaBTNAyS-4" vertex="1">
          <mxGeometry y="130" width="210" height="26" as="geometry" />
        </mxCell>
        <mxCell id="s01bNbvJfiu_EaBTNAyS-14" value="+ subtotal_label: tk.Label" style="text;align=left;verticalAlign=top;spacingLeft=4;spacingRight=4;overflow=hidden;rotatable=0;points=[[0,0.5],[1,0.5]];portConstraint=eastwest;" parent="s01bNbvJfiu_EaBTNAyS-4" vertex="1">
          <mxGeometry y="156" width="210" height="26" as="geometry" />
        </mxCell>
        <mxCell id="s01bNbvJfiu_EaBTNAyS-16" value="+ tax_label: tk.Label" style="text;align=left;verticalAlign=top;spacingLeft=4;spacingRight=4;overflow=hidden;rotatable=0;points=[[0,0.5],[1,0.5]];portConstraint=eastwest;" parent="s01bNbvJfiu_EaBTNAyS-4" vertex="1">
          <mxGeometry y="182" width="210" height="28" as="geometry" />
        </mxCell>
        <mxCell id="rUo7-Wu-Zcv8M0IQZXfz-1" value="+ total_label: tk.Label" style="text;align=left;verticalAlign=top;spacingLeft=4;spacingRight=4;overflow=hidden;rotatable=0;points=[[0,0.5],[1,0.5]];portConstraint=eastwest;" parent="s01bNbvJfiu_EaBTNAyS-4" vertex="1">
          <mxGeometry y="210" width="210" height="28" as="geometry" />
        </mxCell>
        <mxCell id="rUo7-Wu-Zcv8M0IQZXfz-2" value="+ save_item(item)" style="text;align=left;verticalAlign=top;spacingLeft=4;spacingRight=4;overflow=hidden;rotatable=0;points=[[0,0.5],[1,0.5]];portConstraint=eastwest;" parent="s01bNbvJfiu_EaBTNAyS-4" vertex="1">
          <mxGeometry y="238" width="210" height="28" as="geometry" />
        </mxCell>
        <mxCell id="s01bNbvJfiu_EaBTNAyS-17" value="- update_tree(item, str)" style="text;align=left;verticalAlign=top;spacingLeft=4;spacingRight=4;overflow=hidden;rotatable=0;points=[[0,0.5],[1,0.5]];portConstraint=eastwest;" parent="s01bNbvJfiu_EaBTNAyS-4" vertex="1">
          <mxGeometry y="266" width="210" height="28" as="geometry" />
        </mxCell>
        <mxCell id="s01bNbvJfiu_EaBTNAyS-18" value="SidePanel" style="swimlane;fontStyle=0;align=center;verticalAlign=top;childLayout=stackLayout;horizontal=1;startSize=26;horizontalStack=0;resizeParent=1;resizeLast=0;collapsible=1;marginBottom=0;rounded=0;shadow=0;strokeWidth=1;" parent="WIyWlLk6GJQsqaUBKTNV-1" vertex="1">
          <mxGeometry x="10" y="260" width="220" height="240" as="geometry">
            <mxRectangle x="550" y="140" width="160" height="26" as="alternateBounds" />
          </mxGeometry>
        </mxCell>
        <mxCell id="s01bNbvJfiu_EaBTNAyS-19" value="- master: PrimaryWindow" style="text;align=left;verticalAlign=top;spacingLeft=4;spacingRight=4;overflow=hidden;rotatable=0;points=[[0,0.5],[1,0.5]];portConstraint=eastwest;rounded=0;shadow=0;html=0;" parent="s01bNbvJfiu_EaBTNAyS-18" vertex="1">
          <mxGeometry y="26" width="220" height="26" as="geometry" />
        </mxCell>
        <mxCell id="s01bNbvJfiu_EaBTNAyS-20" value="- item: Side" style="text;align=left;verticalAlign=top;spacingLeft=4;spacingRight=4;overflow=hidden;rotatable=0;points=[[0,0.5],[1,0.5]];portConstraint=eastwest;" parent="s01bNbvJfiu_EaBTNAyS-18" vertex="1">
          <mxGeometry y="52" width="220" height="26" as="geometry" />
        </mxCell>
        <mxCell id="s01bNbvJfiu_EaBTNAyS-24" value="- size: tk.Stringvar" style="text;align=left;verticalAlign=top;spacingLeft=4;spacingRight=4;overflow=hidden;rotatable=0;points=[[0,0.5],[1,0.5]];portConstraint=eastwest;" parent="s01bNbvJfiu_EaBTNAyS-18" vertex="1">
          <mxGeometry y="78" width="220" height="26" as="geometry" />
        </mxCell>
        <mxCell id="s01bNbvJfiu_EaBTNAyS-25" value="+ title: tk.Label" style="text;align=left;verticalAlign=top;spacingLeft=4;spacingRight=4;overflow=hidden;rotatable=0;points=[[0,0.5],[1,0.5]];portConstraint=eastwest;" parent="s01bNbvJfiu_EaBTNAyS-18" vertex="1">
          <mxGeometry y="104" width="220" height="26" as="geometry" />
        </mxCell>
        <mxCell id="s01bNbvJfiu_EaBTNAyS-26" value="+ size_combo: ttk.ComboBox" style="text;align=left;verticalAlign=top;spacingLeft=4;spacingRight=4;overflow=hidden;rotatable=0;points=[[0,0.5],[1,0.5]];portConstraint=eastwest;" parent="s01bNbvJfiu_EaBTNAyS-18" vertex="1">
          <mxGeometry y="130" width="220" height="26" as="geometry" />
        </mxCell>
        <mxCell id="rUo7-Wu-Zcv8M0IQZXfz-3" value="+ save: tk.Button" style="text;align=left;verticalAlign=top;spacingLeft=4;spacingRight=4;overflow=hidden;rotatable=0;points=[[0,0.5],[1,0.5]];portConstraint=eastwest;" parent="s01bNbvJfiu_EaBTNAyS-18" vertex="1">
          <mxGeometry y="156" width="220" height="26" as="geometry" />
        </mxCell>
        <mxCell id="s01bNbvJfiu_EaBTNAyS-27" value="+ cancel: tk.Button" style="text;align=left;verticalAlign=top;spacingLeft=4;spacingRight=4;overflow=hidden;rotatable=0;points=[[0,0.5],[1,0.5]];portConstraint=eastwest;" parent="s01bNbvJfiu_EaBTNAyS-18" vertex="1">
          <mxGeometry y="182" width="220" height="26" as="geometry" />
        </mxCell>
        <mxCell id="s01bNbvJfiu_EaBTNAyS-21" value="" style="line;html=1;strokeWidth=1;align=left;verticalAlign=middle;spacingTop=-1;spacingLeft=3;spacingRight=3;rotatable=0;labelPosition=right;points=[];portConstraint=eastwest;" parent="s01bNbvJfiu_EaBTNAyS-18" vertex="1">
          <mxGeometry y="208" width="220" height="6" as="geometry" />
        </mxCell>
        <mxCell id="s01bNbvJfiu_EaBTNAyS-22" value="+ action_performed(str)" style="text;align=left;verticalAlign=top;spacingLeft=4;spacingRight=4;overflow=hidden;rotatable=0;points=[[0,0.5],[1,0.5]];portConstraint=eastwest;" parent="s01bNbvJfiu_EaBTNAyS-18" vertex="1">
          <mxGeometry y="214" width="220" height="26" as="geometry" />
        </mxCell>
        <mxCell id="s01bNbvJfiu_EaBTNAyS-76" style="edgeStyle=orthogonalEdgeStyle;rounded=0;orthogonalLoop=1;jettySize=auto;html=1;exitX=0.5;exitY=0;exitDx=0;exitDy=0;endArrow=none;endFill=0;" parent="WIyWlLk6GJQsqaUBKTNV-1" source="s01bNbvJfiu_EaBTNAyS-28" edge="1">
          <mxGeometry relative="1" as="geometry">
            <mxPoint x="370" y="470" as="targetPoint" />
          </mxGeometry>
        </mxCell>
        <mxCell id="s01bNbvJfiu_EaBTNAyS-28" value="CandyPanel" style="swimlane;fontStyle=0;align=center;verticalAlign=top;childLayout=stackLayout;horizontal=1;startSize=26;horizontalStack=0;resizeParent=1;resizeLast=0;collapsible=1;marginBottom=0;rounded=0;shadow=0;strokeWidth=1;" parent="WIyWlLk6GJQsqaUBKTNV-1" vertex="1">
          <mxGeometry x="10" y="550" width="220" height="318" as="geometry">
            <mxRectangle x="550" y="140" width="160" height="26" as="alternateBounds" />
          </mxGeometry>
        </mxCell>
        <mxCell id="s01bNbvJfiu_EaBTNAyS-29" value="- master: PrimaryWindow" style="text;align=left;verticalAlign=top;spacingLeft=4;spacingRight=4;overflow=hidden;rotatable=0;points=[[0,0.5],[1,0.5]];portConstraint=eastwest;rounded=0;shadow=0;html=0;" parent="s01bNbvJfiu_EaBTNAyS-28" vertex="1">
          <mxGeometry y="26" width="220" height="26" as="geometry" />
        </mxCell>
        <mxCell id="s01bNbvJfiu_EaBTNAyS-30" value="- item: Drink" style="text;align=left;verticalAlign=top;spacingLeft=4;spacingRight=4;overflow=hidden;rotatable=0;points=[[0,0.5],[1,0.5]];portConstraint=eastwest;" parent="s01bNbvJfiu_EaBTNAyS-28" vertex="1">
          <mxGeometry y="52" width="220" height="26" as="geometry" />
        </mxCell>
        <mxCell id="s01bNbvJfiu_EaBTNAyS-31" value="- size: tk.Stringvar" style="text;align=left;verticalAlign=top;spacingLeft=4;spacingRight=4;overflow=hidden;rotatable=0;points=[[0,0.5],[1,0.5]];portConstraint=eastwest;" parent="s01bNbvJfiu_EaBTNAyS-28" vertex="1">
          <mxGeometry y="78" width="220" height="26" as="geometry" />
        </mxCell>
        <mxCell id="s01bNbvJfiu_EaBTNAyS-32" value="+ title: tk.Label" style="text;align=left;verticalAlign=top;spacingLeft=4;spacingRight=4;overflow=hidden;rotatable=0;points=[[0,0.5],[1,0.5]];portConstraint=eastwest;" parent="s01bNbvJfiu_EaBTNAyS-28" vertex="1">
          <mxGeometry y="104" width="220" height="26" as="geometry" />
        </mxCell>
        <mxCell id="s01bNbvJfiu_EaBTNAyS-33" value="+ size_combo: ttk.ComboBox" style="text;align=left;verticalAlign=top;spacingLeft=4;spacingRight=4;overflow=hidden;rotatable=0;points=[[0,0.5],[1,0.5]];portConstraint=eastwest;" parent="s01bNbvJfiu_EaBTNAyS-28" vertex="1">
          <mxGeometry y="130" width="220" height="26" as="geometry" />
        </mxCell>
        <mxCell id="s01bNbvJfiu_EaBTNAyS-34" value="+ save: tk.Button" style="text;align=left;verticalAlign=top;spacingLeft=4;spacingRight=4;overflow=hidden;rotatable=0;points=[[0,0.5],[1,0.5]];portConstraint=eastwest;" parent="s01bNbvJfiu_EaBTNAyS-28" vertex="1">
          <mxGeometry y="156" width="220" height="26" as="geometry" />
        </mxCell>
        <mxCell id="s01bNbvJfiu_EaBTNAyS-37" value="- chocolate: tk.BooleanVar" style="text;align=left;verticalAlign=top;spacingLeft=4;spacingRight=4;overflow=hidden;rotatable=0;points=[[0,0.5],[1,0.5]];portConstraint=eastwest;" parent="s01bNbvJfiu_EaBTNAyS-28" vertex="1">
          <mxGeometry y="182" width="220" height="26" as="geometry" />
        </mxCell>
        <mxCell id="s01bNbvJfiu_EaBTNAyS-38" value="- vanilla: tk.BooleanVar" style="text;align=left;verticalAlign=top;spacingLeft=4;spacingRight=4;overflow=hidden;rotatable=0;points=[[0,0.5],[1,0.5]];portConstraint=eastwest;" parent="s01bNbvJfiu_EaBTNAyS-28" vertex="1">
          <mxGeometry y="208" width="220" height="26" as="geometry" />
        </mxCell>
        <mxCell id="s01bNbvJfiu_EaBTNAyS-39" value="- strawberry: tk.BooleanVar" style="text;align=left;verticalAlign=top;spacingLeft=4;spacingRight=4;overflow=hidden;rotatable=0;points=[[0,0.5],[1,0.5]];portConstraint=eastwest;" parent="s01bNbvJfiu_EaBTNAyS-28" vertex="1">
          <mxGeometry y="234" width="220" height="26" as="geometry" />
        </mxCell>
        <mxCell id="rUo7-Wu-Zcv8M0IQZXfz-4" value="+ cancel: tk.Button" style="text;align=left;verticalAlign=top;spacingLeft=4;spacingRight=4;overflow=hidden;rotatable=0;points=[[0,0.5],[1,0.5]];portConstraint=eastwest;" parent="s01bNbvJfiu_EaBTNAyS-28" vertex="1">
          <mxGeometry y="260" width="220" height="26" as="geometry" />
        </mxCell>
        <mxCell id="s01bNbvJfiu_EaBTNAyS-35" value="" style="line;html=1;strokeWidth=1;align=left;verticalAlign=middle;spacingTop=-1;spacingLeft=3;spacingRight=3;rotatable=0;labelPosition=right;points=[];portConstraint=eastwest;" parent="s01bNbvJfiu_EaBTNAyS-28" vertex="1">
          <mxGeometry y="286" width="220" height="6" as="geometry" />
        </mxCell>
        <mxCell id="s01bNbvJfiu_EaBTNAyS-36" value="+ action_performed(str)" style="text;align=left;verticalAlign=top;spacingLeft=4;spacingRight=4;overflow=hidden;rotatable=0;points=[[0,0.5],[1,0.5]];portConstraint=eastwest;" parent="s01bNbvJfiu_EaBTNAyS-28" vertex="1">
          <mxGeometry y="292" width="220" height="26" as="geometry" />
        </mxCell>
        <mxCell id="s01bNbvJfiu_EaBTNAyS-75" style="edgeStyle=orthogonalEdgeStyle;rounded=0;orthogonalLoop=1;jettySize=auto;html=1;exitX=0.5;exitY=0;exitDx=0;exitDy=0;entryX=0.5;entryY=1;entryDx=0;entryDy=0;" parent="WIyWlLk6GJQsqaUBKTNV-1" source="s01bNbvJfiu_EaBTNAyS-40" target="yfGy1YuE3UhsHDderf7L-0" edge="1">
          <mxGeometry relative="1" as="geometry" />
        </mxCell>
        <mxCell id="s01bNbvJfiu_EaBTNAyS-40" value="CraniumPanel" style="swimlane;fontStyle=0;align=center;verticalAlign=top;childLayout=stackLayout;horizontal=1;startSize=26;horizontalStack=0;resizeParent=1;resizeLast=0;collapsible=1;marginBottom=0;rounded=0;shadow=0;strokeWidth=1;" parent="WIyWlLk6GJQsqaUBKTNV-1" vertex="1">
          <mxGeometry x="260" y="550" width="220" height="344" as="geometry">
            <mxRectangle x="550" y="140" width="160" height="26" as="alternateBounds" />
          </mxGeometry>
        </mxCell>
        <mxCell id="s01bNbvJfiu_EaBTNAyS-41" value="- master: PrimaryWindow" style="text;align=left;verticalAlign=top;spacingLeft=4;spacingRight=4;overflow=hidden;rotatable=0;points=[[0,0.5],[1,0.5]];portConstraint=eastwest;rounded=0;shadow=0;html=0;" parent="s01bNbvJfiu_EaBTNAyS-40" vertex="1">
          <mxGeometry y="26" width="220" height="26" as="geometry" />
        </mxCell>
        <mxCell id="s01bNbvJfiu_EaBTNAyS-42" value="- item: Drink" style="text;align=left;verticalAlign=top;spacingLeft=4;spacingRight=4;overflow=hidden;rotatable=0;points=[[0,0.5],[1,0.5]];portConstraint=eastwest;" parent="s01bNbvJfiu_EaBTNAyS-40" vertex="1">
          <mxGeometry y="52" width="220" height="26" as="geometry" />
        </mxCell>
        <mxCell id="s01bNbvJfiu_EaBTNAyS-43" value="- size: tk.Stringvar" style="text;align=left;verticalAlign=top;spacingLeft=4;spacingRight=4;overflow=hidden;rotatable=0;points=[[0,0.5],[1,0.5]];portConstraint=eastwest;" parent="s01bNbvJfiu_EaBTNAyS-40" vertex="1">
          <mxGeometry y="78" width="220" height="26" as="geometry" />
        </mxCell>
        <mxCell id="s01bNbvJfiu_EaBTNAyS-44" value="+ title: tk.Label" style="text;align=left;verticalAlign=top;spacingLeft=4;spacingRight=4;overflow=hidden;rotatable=0;points=[[0,0.5],[1,0.5]];portConstraint=eastwest;" parent="s01bNbvJfiu_EaBTNAyS-40" vertex="1">
          <mxGeometry y="104" width="220" height="26" as="geometry" />
        </mxCell>
        <mxCell id="s01bNbvJfiu_EaBTNAyS-45" value="+ size_combo: ttk.ComboBox" style="text;align=left;verticalAlign=top;spacingLeft=4;spacingRight=4;overflow=hidden;rotatable=0;points=[[0,0.5],[1,0.5]];portConstraint=eastwest;" parent="s01bNbvJfiu_EaBTNAyS-40" vertex="1">
          <mxGeometry y="130" width="220" height="26" as="geometry" />
        </mxCell>
        <mxCell id="s01bNbvJfiu_EaBTNAyS-46" value="+ save: tk.Button" style="text;align=left;verticalAlign=top;spacingLeft=4;spacingRight=4;overflow=hidden;rotatable=0;points=[[0,0.5],[1,0.5]];portConstraint=eastwest;" parent="s01bNbvJfiu_EaBTNAyS-40" vertex="1">
          <mxGeometry y="156" width="220" height="26" as="geometry" />
        </mxCell>
        <mxCell id="s01bNbvJfiu_EaBTNAyS-47" value="- milk: tk.BooleanVar" style="text;align=left;verticalAlign=top;spacingLeft=4;spacingRight=4;overflow=hidden;rotatable=0;points=[[0,0.5],[1,0.5]];portConstraint=eastwest;" parent="s01bNbvJfiu_EaBTNAyS-40" vertex="1">
          <mxGeometry y="182" width="220" height="26" as="geometry" />
        </mxCell>
        <mxCell id="s01bNbvJfiu_EaBTNAyS-48" value="- chocolate: tk.BooleanVar" style="text;align=left;verticalAlign=top;spacingLeft=4;spacingRight=4;overflow=hidden;rotatable=0;points=[[0,0.5],[1,0.5]];portConstraint=eastwest;" parent="s01bNbvJfiu_EaBTNAyS-40" vertex="1">
          <mxGeometry y="208" width="220" height="26" as="geometry" />
        </mxCell>
        <mxCell id="s01bNbvJfiu_EaBTNAyS-49" value="- mint: tk.BooleanVar" style="text;align=left;verticalAlign=top;spacingLeft=4;spacingRight=4;overflow=hidden;rotatable=0;points=[[0,0.5],[1,0.5]];portConstraint=eastwest;" parent="s01bNbvJfiu_EaBTNAyS-40" vertex="1">
          <mxGeometry y="234" width="220" height="26" as="geometry" />
        </mxCell>
        <mxCell id="s01bNbvJfiu_EaBTNAyS-52" value="- caramel: tk.BooleanVar" style="text;align=left;verticalAlign=top;spacingLeft=4;spacingRight=4;overflow=hidden;rotatable=0;points=[[0,0.5],[1,0.5]];portConstraint=eastwest;" parent="s01bNbvJfiu_EaBTNAyS-40" vertex="1">
          <mxGeometry y="260" width="220" height="26" as="geometry" />
        </mxCell>
        <mxCell id="rUo7-Wu-Zcv8M0IQZXfz-5" value="+ cancel: tk.Button" style="text;align=left;verticalAlign=top;spacingLeft=4;spacingRight=4;overflow=hidden;rotatable=0;points=[[0,0.5],[1,0.5]];portConstraint=eastwest;" parent="s01bNbvJfiu_EaBTNAyS-40" vertex="1">
          <mxGeometry y="286" width="220" height="26" as="geometry" />
        </mxCell>
        <mxCell id="s01bNbvJfiu_EaBTNAyS-50" value="" style="line;html=1;strokeWidth=1;align=left;verticalAlign=middle;spacingTop=-1;spacingLeft=3;spacingRight=3;rotatable=0;labelPosition=right;points=[];portConstraint=eastwest;" parent="s01bNbvJfiu_EaBTNAyS-40" vertex="1">
          <mxGeometry y="312" width="220" height="6" as="geometry" />
        </mxCell>
        <mxCell id="s01bNbvJfiu_EaBTNAyS-51" value="+ action_performed(str)" style="text;align=left;verticalAlign=top;spacingLeft=4;spacingRight=4;overflow=hidden;rotatable=0;points=[[0,0.5],[1,0.5]];portConstraint=eastwest;" parent="s01bNbvJfiu_EaBTNAyS-40" vertex="1">
          <mxGeometry y="318" width="220" height="26" as="geometry" />
        </mxCell>
        <mxCell id="s01bNbvJfiu_EaBTNAyS-74" style="edgeStyle=orthogonalEdgeStyle;rounded=0;orthogonalLoop=1;jettySize=auto;html=1;exitX=0.5;exitY=0;exitDx=0;exitDy=0;entryX=0.5;entryY=1;entryDx=0;entryDy=0;" parent="WIyWlLk6GJQsqaUBKTNV-1" source="s01bNbvJfiu_EaBTNAyS-53" target="yfGy1YuE3UhsHDderf7L-0" edge="1">
          <mxGeometry relative="1" as="geometry" />
        </mxCell>
        <mxCell id="s01bNbvJfiu_EaBTNAyS-53" value="SorryPanel" style="swimlane;fontStyle=0;align=center;verticalAlign=top;childLayout=stackLayout;horizontal=1;startSize=26;horizontalStack=0;resizeParent=1;resizeLast=0;collapsible=1;marginBottom=0;rounded=0;shadow=0;strokeWidth=1;" parent="WIyWlLk6GJQsqaUBKTNV-1" vertex="1">
          <mxGeometry x="500" y="550" width="220" height="344" as="geometry">
            <mxRectangle x="550" y="140" width="160" height="26" as="alternateBounds" />
          </mxGeometry>
        </mxCell>
        <mxCell id="s01bNbvJfiu_EaBTNAyS-54" value="- master: PrimaryWindow" style="text;align=left;verticalAlign=top;spacingLeft=4;spacingRight=4;overflow=hidden;rotatable=0;points=[[0,0.5],[1,0.5]];portConstraint=eastwest;rounded=0;shadow=0;html=0;" parent="s01bNbvJfiu_EaBTNAyS-53" vertex="1">
          <mxGeometry y="26" width="220" height="26" as="geometry" />
        </mxCell>
        <mxCell id="s01bNbvJfiu_EaBTNAyS-55" value="- item: Drink" style="text;align=left;verticalAlign=top;spacingLeft=4;spacingRight=4;overflow=hidden;rotatable=0;points=[[0,0.5],[1,0.5]];portConstraint=eastwest;" parent="s01bNbvJfiu_EaBTNAyS-53" vertex="1">
          <mxGeometry y="52" width="220" height="26" as="geometry" />
        </mxCell>
        <mxCell id="s01bNbvJfiu_EaBTNAyS-56" value="- size: tk.Stringvar" style="text;align=left;verticalAlign=top;spacingLeft=4;spacingRight=4;overflow=hidden;rotatable=0;points=[[0,0.5],[1,0.5]];portConstraint=eastwest;" parent="s01bNbvJfiu_EaBTNAyS-53" vertex="1">
          <mxGeometry y="78" width="220" height="26" as="geometry" />
        </mxCell>
        <mxCell id="s01bNbvJfiu_EaBTNAyS-57" value="+ title: tk.Label" style="text;align=left;verticalAlign=top;spacingLeft=4;spacingRight=4;overflow=hidden;rotatable=0;points=[[0,0.5],[1,0.5]];portConstraint=eastwest;" parent="s01bNbvJfiu_EaBTNAyS-53" vertex="1">
          <mxGeometry y="104" width="220" height="26" as="geometry" />
        </mxCell>
        <mxCell id="s01bNbvJfiu_EaBTNAyS-58" value="+ size_combo: ttk.ComboBox" style="text;align=left;verticalAlign=top;spacingLeft=4;spacingRight=4;overflow=hidden;rotatable=0;points=[[0,0.5],[1,0.5]];portConstraint=eastwest;" parent="s01bNbvJfiu_EaBTNAyS-53" vertex="1">
          <mxGeometry y="130" width="220" height="26" as="geometry" />
        </mxCell>
        <mxCell id="s01bNbvJfiu_EaBTNAyS-59" value="+ save: tk.Button" style="text;align=left;verticalAlign=top;spacingLeft=4;spacingRight=4;overflow=hidden;rotatable=0;points=[[0,0.5],[1,0.5]];portConstraint=eastwest;" parent="s01bNbvJfiu_EaBTNAyS-53" vertex="1">
          <mxGeometry y="156" width="220" height="26" as="geometry" />
        </mxCell>
        <mxCell id="s01bNbvJfiu_EaBTNAyS-60" value="- cola: tk.BooleanVar" style="text;align=left;verticalAlign=top;spacingLeft=4;spacingRight=4;overflow=hidden;rotatable=0;points=[[0,0.5],[1,0.5]];portConstraint=eastwest;" parent="s01bNbvJfiu_EaBTNAyS-53" vertex="1">
          <mxGeometry y="182" width="220" height="26" as="geometry" />
        </mxCell>
        <mxCell id="s01bNbvJfiu_EaBTNAyS-61" value="- cherry: tk.BooleanVar" style="text;align=left;verticalAlign=top;spacingLeft=4;spacingRight=4;overflow=hidden;rotatable=0;points=[[0,0.5],[1,0.5]];portConstraint=eastwest;" parent="s01bNbvJfiu_EaBTNAyS-53" vertex="1">
          <mxGeometry y="208" width="220" height="26" as="geometry" />
        </mxCell>
        <mxCell id="s01bNbvJfiu_EaBTNAyS-62" value="- grape: tk.BooleanVar" style="text;align=left;verticalAlign=top;spacingLeft=4;spacingRight=4;overflow=hidden;rotatable=0;points=[[0,0.5],[1,0.5]];portConstraint=eastwest;" parent="s01bNbvJfiu_EaBTNAyS-53" vertex="1">
          <mxGeometry y="234" width="220" height="26" as="geometry" />
        </mxCell>
        <mxCell id="s01bNbvJfiu_EaBTNAyS-63" value="- orange: tk.BooleanVar" style="text;align=left;verticalAlign=top;spacingLeft=4;spacingRight=4;overflow=hidden;rotatable=0;points=[[0,0.5],[1,0.5]];portConstraint=eastwest;" parent="s01bNbvJfiu_EaBTNAyS-53" vertex="1">
          <mxGeometry y="260" width="220" height="26" as="geometry" />
        </mxCell>
        <mxCell id="rUo7-Wu-Zcv8M0IQZXfz-6" value="+ cancel: tk.Button" style="text;align=left;verticalAlign=top;spacingLeft=4;spacingRight=4;overflow=hidden;rotatable=0;points=[[0,0.5],[1,0.5]];portConstraint=eastwest;" parent="s01bNbvJfiu_EaBTNAyS-53" vertex="1">
          <mxGeometry y="286" width="220" height="26" as="geometry" />
        </mxCell>
        <mxCell id="s01bNbvJfiu_EaBTNAyS-64" value="" style="line;html=1;strokeWidth=1;align=left;verticalAlign=middle;spacingTop=-1;spacingLeft=3;spacingRight=3;rotatable=0;labelPosition=right;points=[];portConstraint=eastwest;" parent="s01bNbvJfiu_EaBTNAyS-53" vertex="1">
          <mxGeometry y="312" width="220" height="6" as="geometry" />
        </mxCell>
        <mxCell id="s01bNbvJfiu_EaBTNAyS-65" value="+ action_performed(str)" style="text;align=left;verticalAlign=top;spacingLeft=4;spacingRight=4;overflow=hidden;rotatable=0;points=[[0,0.5],[1,0.5]];portConstraint=eastwest;" parent="s01bNbvJfiu_EaBTNAyS-53" vertex="1">
          <mxGeometry y="318" width="220" height="26" as="geometry" />
        </mxCell>
        <mxCell id="s01bNbvJfiu_EaBTNAyS-66" style="edgeStyle=orthogonalEdgeStyle;rounded=0;orthogonalLoop=1;jettySize=auto;html=1;exitX=0;exitY=0.5;exitDx=0;exitDy=0;" parent="WIyWlLk6GJQsqaUBKTNV-1" source="yfGy1YuE3UhsHDderf7L-7" target="zkfFHV4jXpPFQw0GAbJ--24" edge="1">
          <mxGeometry relative="1" as="geometry" />
        </mxCell>
        <mxCell id="s01bNbvJfiu_EaBTNAyS-70" style="edgeStyle=orthogonalEdgeStyle;rounded=0;orthogonalLoop=1;jettySize=auto;html=1;exitX=1;exitY=0.5;exitDx=0;exitDy=0;entryX=0.5;entryY=1;entryDx=0;entryDy=0;" parent="WIyWlLk6GJQsqaUBKTNV-1" source="s01bNbvJfiu_EaBTNAyS-25" target="yfGy1YuE3UhsHDderf7L-0" edge="1">
          <mxGeometry relative="1" as="geometry" />
        </mxCell>
        <mxCell id="s01bNbvJfiu_EaBTNAyS-166" style="edgeStyle=orthogonalEdgeStyle;rounded=0;orthogonalLoop=1;jettySize=auto;html=1;exitX=0.5;exitY=0;exitDx=0;exitDy=0;entryX=0.5;entryY=0;entryDx=0;entryDy=0;endArrow=none;endFill=0;" parent="WIyWlLk6GJQsqaUBKTNV-1" source="s01bNbvJfiu_EaBTNAyS-77" target="s01bNbvJfiu_EaBTNAyS-107" edge="1">
          <mxGeometry relative="1" as="geometry" />
        </mxCell>
        <mxCell id="s01bNbvJfiu_EaBTNAyS-77" value="CluePanel" style="swimlane;fontStyle=0;align=center;verticalAlign=top;childLayout=stackLayout;horizontal=1;startSize=26;horizontalStack=0;resizeParent=1;resizeLast=0;collapsible=1;marginBottom=0;rounded=0;shadow=0;strokeWidth=1;" parent="WIyWlLk6GJQsqaUBKTNV-1" vertex="1">
          <mxGeometry x="10" y="960" width="220" height="396" as="geometry">
            <mxRectangle x="550" y="140" width="160" height="26" as="alternateBounds" />
          </mxGeometry>
        </mxCell>
        <mxCell id="s01bNbvJfiu_EaBTNAyS-78" value="- master: PrimaryWindow" style="text;align=left;verticalAlign=top;spacingLeft=4;spacingRight=4;overflow=hidden;rotatable=0;points=[[0,0.5],[1,0.5]];portConstraint=eastwest;rounded=0;shadow=0;html=0;" parent="s01bNbvJfiu_EaBTNAyS-77" vertex="1">
          <mxGeometry y="26" width="220" height="26" as="geometry" />
        </mxCell>
        <mxCell id="s01bNbvJfiu_EaBTNAyS-79" value="- item: Entree" style="text;align=left;verticalAlign=top;spacingLeft=4;spacingRight=4;overflow=hidden;rotatable=0;points=[[0,0.5],[1,0.5]];portConstraint=eastwest;" parent="s01bNbvJfiu_EaBTNAyS-77" vertex="1">
          <mxGeometry y="52" width="220" height="26" as="geometry" />
        </mxCell>
        <mxCell id="s01bNbvJfiu_EaBTNAyS-80" value="- base: tk.Stringvar" style="text;align=left;verticalAlign=top;spacingLeft=4;spacingRight=4;overflow=hidden;rotatable=0;points=[[0,0.5],[1,0.5]];portConstraint=eastwest;" parent="s01bNbvJfiu_EaBTNAyS-77" vertex="1">
          <mxGeometry y="78" width="220" height="26" as="geometry" />
        </mxCell>
        <mxCell id="s01bNbvJfiu_EaBTNAyS-90" value="- toppings: dict" style="text;align=left;verticalAlign=top;spacingLeft=4;spacingRight=4;overflow=hidden;rotatable=0;points=[[0,0.5],[1,0.5]];portConstraint=eastwest;" parent="s01bNbvJfiu_EaBTNAyS-77" vertex="1">
          <mxGeometry y="104" width="220" height="26" as="geometry" />
        </mxCell>
        <mxCell id="s01bNbvJfiu_EaBTNAyS-81" value="+ title: tk.Label" style="text;align=left;verticalAlign=top;spacingLeft=4;spacingRight=4;overflow=hidden;rotatable=0;points=[[0,0.5],[1,0.5]];portConstraint=eastwest;" parent="s01bNbvJfiu_EaBTNAyS-77" vertex="1">
          <mxGeometry y="130" width="220" height="26" as="geometry" />
        </mxCell>
        <mxCell id="s01bNbvJfiu_EaBTNAyS-82" value="+ base_combo: ttk.ComboBox" style="text;align=left;verticalAlign=top;spacingLeft=4;spacingRight=4;overflow=hidden;rotatable=0;points=[[0,0.5],[1,0.5]];portConstraint=eastwest;" parent="s01bNbvJfiu_EaBTNAyS-77" vertex="1">
          <mxGeometry y="156" width="220" height="26" as="geometry" />
        </mxCell>
        <mxCell id="s01bNbvJfiu_EaBTNAyS-83" value="+ save: tk.Button" style="text;align=left;verticalAlign=top;spacingLeft=4;spacingRight=4;overflow=hidden;rotatable=0;points=[[0,0.5],[1,0.5]];portConstraint=eastwest;" parent="s01bNbvJfiu_EaBTNAyS-77" vertex="1">
          <mxGeometry y="182" width="220" height="26" as="geometry" />
        </mxCell>
        <mxCell id="s01bNbvJfiu_EaBTNAyS-89" value="+ top_label: tk.Label" style="text;align=left;verticalAlign=top;spacingLeft=4;spacingRight=4;overflow=hidden;rotatable=0;points=[[0,0.5],[1,0.5]];portConstraint=eastwest;" parent="s01bNbvJfiu_EaBTNAyS-77" vertex="1">
          <mxGeometry y="208" width="220" height="26" as="geometry" />
        </mxCell>
        <mxCell id="s01bNbvJfiu_EaBTNAyS-84" value="- red_sauce: tk.BooleanVar" style="text;align=left;verticalAlign=top;spacingLeft=4;spacingRight=4;overflow=hidden;rotatable=0;points=[[0,0.5],[1,0.5]];portConstraint=eastwest;" parent="s01bNbvJfiu_EaBTNAyS-77" vertex="1">
          <mxGeometry y="234" width="220" height="26" as="geometry" />
        </mxCell>
        <mxCell id="s01bNbvJfiu_EaBTNAyS-85" value="- spicy_beef: tk.BooleanVar" style="text;align=left;verticalAlign=top;spacingLeft=4;spacingRight=4;overflow=hidden;rotatable=0;points=[[0,0.5],[1,0.5]];portConstraint=eastwest;" parent="s01bNbvJfiu_EaBTNAyS-77" vertex="1">
          <mxGeometry y="260" width="220" height="26" as="geometry" />
        </mxCell>
        <mxCell id="s01bNbvJfiu_EaBTNAyS-91" value="- chili: tk.BooleanVar" style="text;align=left;verticalAlign=top;spacingLeft=4;spacingRight=4;overflow=hidden;rotatable=0;points=[[0,0.5],[1,0.5]];portConstraint=eastwest;" parent="s01bNbvJfiu_EaBTNAyS-77" vertex="1">
          <mxGeometry y="286" width="220" height="26" as="geometry" />
        </mxCell>
        <mxCell id="s01bNbvJfiu_EaBTNAyS-86" value="- beans: tk.BooleanVar" style="text;align=left;verticalAlign=top;spacingLeft=4;spacingRight=4;overflow=hidden;rotatable=0;points=[[0,0.5],[1,0.5]];portConstraint=eastwest;" parent="s01bNbvJfiu_EaBTNAyS-77" vertex="1">
          <mxGeometry y="312" width="220" height="26" as="geometry" />
        </mxCell>
        <mxCell id="rUo7-Wu-Zcv8M0IQZXfz-7" value="+ cancel: tk.Button" style="text;align=left;verticalAlign=top;spacingLeft=4;spacingRight=4;overflow=hidden;rotatable=0;points=[[0,0.5],[1,0.5]];portConstraint=eastwest;" parent="s01bNbvJfiu_EaBTNAyS-77" vertex="1">
          <mxGeometry y="338" width="220" height="26" as="geometry" />
        </mxCell>
        <mxCell id="s01bNbvJfiu_EaBTNAyS-87" value="" style="line;html=1;strokeWidth=1;align=left;verticalAlign=middle;spacingTop=-1;spacingLeft=3;spacingRight=3;rotatable=0;labelPosition=right;points=[];portConstraint=eastwest;" parent="s01bNbvJfiu_EaBTNAyS-77" vertex="1">
          <mxGeometry y="364" width="220" height="6" as="geometry" />
        </mxCell>
        <mxCell id="s01bNbvJfiu_EaBTNAyS-88" value="+ action_performed(str)" style="text;align=left;verticalAlign=top;spacingLeft=4;spacingRight=4;overflow=hidden;rotatable=0;points=[[0,0.5],[1,0.5]];portConstraint=eastwest;" parent="s01bNbvJfiu_EaBTNAyS-77" vertex="1">
          <mxGeometry y="370" width="220" height="26" as="geometry" />
        </mxCell>
        <mxCell id="s01bNbvJfiu_EaBTNAyS-165" style="edgeStyle=orthogonalEdgeStyle;rounded=0;orthogonalLoop=1;jettySize=auto;html=1;exitX=0.5;exitY=0;exitDx=0;exitDy=0;endArrow=none;endFill=0;" parent="WIyWlLk6GJQsqaUBKTNV-1" source="s01bNbvJfiu_EaBTNAyS-92" edge="1">
          <mxGeometry relative="1" as="geometry">
            <mxPoint x="620" y="930" as="targetPoint" />
            <Array as="points">
              <mxPoint x="370" y="940" />
              <mxPoint x="621" y="940" />
            </Array>
          </mxGeometry>
        </mxCell>
        <mxCell id="s01bNbvJfiu_EaBTNAyS-92" value="ChessPanel" style="swimlane;fontStyle=0;align=center;verticalAlign=top;childLayout=stackLayout;horizontal=1;startSize=26;horizontalStack=0;resizeParent=1;resizeLast=0;collapsible=1;marginBottom=0;rounded=0;shadow=0;strokeWidth=1;" parent="WIyWlLk6GJQsqaUBKTNV-1" vertex="1">
          <mxGeometry x="260" y="960" width="220" height="344" as="geometry">
            <mxRectangle x="550" y="140" width="160" height="26" as="alternateBounds" />
          </mxGeometry>
        </mxCell>
        <mxCell id="s01bNbvJfiu_EaBTNAyS-93" value="- master: PrimaryWindow" style="text;align=left;verticalAlign=top;spacingLeft=4;spacingRight=4;overflow=hidden;rotatable=0;points=[[0,0.5],[1,0.5]];portConstraint=eastwest;rounded=0;shadow=0;html=0;" parent="s01bNbvJfiu_EaBTNAyS-92" vertex="1">
          <mxGeometry y="26" width="220" height="26" as="geometry" />
        </mxCell>
        <mxCell id="s01bNbvJfiu_EaBTNAyS-94" value="- item: Entree" style="text;align=left;verticalAlign=top;spacingLeft=4;spacingRight=4;overflow=hidden;rotatable=0;points=[[0,0.5],[1,0.5]];portConstraint=eastwest;" parent="s01bNbvJfiu_EaBTNAyS-92" vertex="1">
          <mxGeometry y="52" width="220" height="26" as="geometry" />
        </mxCell>
        <mxCell id="s01bNbvJfiu_EaBTNAyS-95" value="- base: tk.Stringvar" style="text;align=left;verticalAlign=top;spacingLeft=4;spacingRight=4;overflow=hidden;rotatable=0;points=[[0,0.5],[1,0.5]];portConstraint=eastwest;" parent="s01bNbvJfiu_EaBTNAyS-92" vertex="1">
          <mxGeometry y="78" width="220" height="26" as="geometry" />
        </mxCell>
        <mxCell id="s01bNbvJfiu_EaBTNAyS-96" value="- toppings: dict" style="text;align=left;verticalAlign=top;spacingLeft=4;spacingRight=4;overflow=hidden;rotatable=0;points=[[0,0.5],[1,0.5]];portConstraint=eastwest;" parent="s01bNbvJfiu_EaBTNAyS-92" vertex="1">
          <mxGeometry y="104" width="220" height="26" as="geometry" />
        </mxCell>
        <mxCell id="s01bNbvJfiu_EaBTNAyS-97" value="+ title: tk.Label" style="text;align=left;verticalAlign=top;spacingLeft=4;spacingRight=4;overflow=hidden;rotatable=0;points=[[0,0.5],[1,0.5]];portConstraint=eastwest;" parent="s01bNbvJfiu_EaBTNAyS-92" vertex="1">
          <mxGeometry y="130" width="220" height="26" as="geometry" />
        </mxCell>
        <mxCell id="s01bNbvJfiu_EaBTNAyS-98" value="+ base_combo: ttk.ComboBox" style="text;align=left;verticalAlign=top;spacingLeft=4;spacingRight=4;overflow=hidden;rotatable=0;points=[[0,0.5],[1,0.5]];portConstraint=eastwest;" parent="s01bNbvJfiu_EaBTNAyS-92" vertex="1">
          <mxGeometry y="156" width="220" height="26" as="geometry" />
        </mxCell>
        <mxCell id="s01bNbvJfiu_EaBTNAyS-99" value="+ save: tk.Button" style="text;align=left;verticalAlign=top;spacingLeft=4;spacingRight=4;overflow=hidden;rotatable=0;points=[[0,0.5],[1,0.5]];portConstraint=eastwest;" parent="s01bNbvJfiu_EaBTNAyS-92" vertex="1">
          <mxGeometry y="182" width="220" height="26" as="geometry" />
        </mxCell>
        <mxCell id="s01bNbvJfiu_EaBTNAyS-100" value="+ top_label: tk.Label" style="text;align=left;verticalAlign=top;spacingLeft=4;spacingRight=4;overflow=hidden;rotatable=0;points=[[0,0.5],[1,0.5]];portConstraint=eastwest;" parent="s01bNbvJfiu_EaBTNAyS-92" vertex="1">
          <mxGeometry y="208" width="220" height="26" as="geometry" />
        </mxCell>
        <mxCell id="s01bNbvJfiu_EaBTNAyS-101" value="- red_sauce: tk.BooleanVar" style="text;align=left;verticalAlign=top;spacingLeft=4;spacingRight=4;overflow=hidden;rotatable=0;points=[[0,0.5],[1,0.5]];portConstraint=eastwest;" parent="s01bNbvJfiu_EaBTNAyS-92" vertex="1">
          <mxGeometry y="234" width="220" height="26" as="geometry" />
        </mxCell>
        <mxCell id="s01bNbvJfiu_EaBTNAyS-102" value="- crispy_chicken: tk.BooleanVar" style="text;align=left;verticalAlign=top;spacingLeft=4;spacingRight=4;overflow=hidden;rotatable=0;points=[[0,0.5],[1,0.5]];portConstraint=eastwest;" parent="s01bNbvJfiu_EaBTNAyS-92" vertex="1">
          <mxGeometry y="260" width="220" height="26" as="geometry" />
        </mxCell>
        <mxCell id="rUo7-Wu-Zcv8M0IQZXfz-8" value="+ cancel: tk.Button" style="text;align=left;verticalAlign=top;spacingLeft=4;spacingRight=4;overflow=hidden;rotatable=0;points=[[0,0.5],[1,0.5]];portConstraint=eastwest;" parent="s01bNbvJfiu_EaBTNAyS-92" vertex="1">
          <mxGeometry y="286" width="220" height="26" as="geometry" />
        </mxCell>
        <mxCell id="s01bNbvJfiu_EaBTNAyS-105" value="" style="line;html=1;strokeWidth=1;align=left;verticalAlign=middle;spacingTop=-1;spacingLeft=3;spacingRight=3;rotatable=0;labelPosition=right;points=[];portConstraint=eastwest;" parent="s01bNbvJfiu_EaBTNAyS-92" vertex="1">
          <mxGeometry y="312" width="220" height="6" as="geometry" />
        </mxCell>
        <mxCell id="s01bNbvJfiu_EaBTNAyS-106" value="+ action_performed(str)" style="text;align=left;verticalAlign=top;spacingLeft=4;spacingRight=4;overflow=hidden;rotatable=0;points=[[0,0.5],[1,0.5]];portConstraint=eastwest;" parent="s01bNbvJfiu_EaBTNAyS-92" vertex="1">
          <mxGeometry y="318" width="220" height="26" as="geometry" />
        </mxCell>
        <mxCell id="s01bNbvJfiu_EaBTNAyS-164" style="edgeStyle=orthogonalEdgeStyle;rounded=0;orthogonalLoop=1;jettySize=auto;html=1;exitX=0.5;exitY=0;exitDx=0;exitDy=0;endArrow=none;endFill=0;" parent="WIyWlLk6GJQsqaUBKTNV-1" source="s01bNbvJfiu_EaBTNAyS-107" edge="1">
          <mxGeometry relative="1" as="geometry">
            <mxPoint x="610" y="380" as="targetPoint" />
            <Array as="points">
              <mxPoint x="620" y="930" />
              <mxPoint x="800" y="930" />
              <mxPoint x="800" y="370" />
              <mxPoint x="780" y="370" />
            </Array>
          </mxGeometry>
        </mxCell>
        <mxCell id="s01bNbvJfiu_EaBTNAyS-107" value="JengaPanel" style="swimlane;fontStyle=0;align=center;verticalAlign=top;childLayout=stackLayout;horizontal=1;startSize=26;horizontalStack=0;resizeParent=1;resizeLast=0;collapsible=1;marginBottom=0;rounded=0;shadow=0;strokeWidth=1;" parent="WIyWlLk6GJQsqaUBKTNV-1" vertex="1">
          <mxGeometry x="510" y="960" width="220" height="344" as="geometry">
            <mxRectangle x="550" y="140" width="160" height="26" as="alternateBounds" />
          </mxGeometry>
        </mxCell>
        <mxCell id="s01bNbvJfiu_EaBTNAyS-108" value="- master: PrimaryWindow" style="text;align=left;verticalAlign=top;spacingLeft=4;spacingRight=4;overflow=hidden;rotatable=0;points=[[0,0.5],[1,0.5]];portConstraint=eastwest;rounded=0;shadow=0;html=0;" parent="s01bNbvJfiu_EaBTNAyS-107" vertex="1">
          <mxGeometry y="26" width="220" height="26" as="geometry" />
        </mxCell>
        <mxCell id="s01bNbvJfiu_EaBTNAyS-109" value="- item: Entree" style="text;align=left;verticalAlign=top;spacingLeft=4;spacingRight=4;overflow=hidden;rotatable=0;points=[[0,0.5],[1,0.5]];portConstraint=eastwest;" parent="s01bNbvJfiu_EaBTNAyS-107" vertex="1">
          <mxGeometry y="52" width="220" height="26" as="geometry" />
        </mxCell>
        <mxCell id="s01bNbvJfiu_EaBTNAyS-110" value="- base: tk.Stringvar" style="text;align=left;verticalAlign=top;spacingLeft=4;spacingRight=4;overflow=hidden;rotatable=0;points=[[0,0.5],[1,0.5]];portConstraint=eastwest;" parent="s01bNbvJfiu_EaBTNAyS-107" vertex="1">
          <mxGeometry y="78" width="220" height="26" as="geometry" />
        </mxCell>
        <mxCell id="s01bNbvJfiu_EaBTNAyS-111" value="- toppings: dict" style="text;align=left;verticalAlign=top;spacingLeft=4;spacingRight=4;overflow=hidden;rotatable=0;points=[[0,0.5],[1,0.5]];portConstraint=eastwest;" parent="s01bNbvJfiu_EaBTNAyS-107" vertex="1">
          <mxGeometry y="104" width="220" height="26" as="geometry" />
        </mxCell>
        <mxCell id="s01bNbvJfiu_EaBTNAyS-112" value="+ title: tk.Label" style="text;align=left;verticalAlign=top;spacingLeft=4;spacingRight=4;overflow=hidden;rotatable=0;points=[[0,0.5],[1,0.5]];portConstraint=eastwest;" parent="s01bNbvJfiu_EaBTNAyS-107" vertex="1">
          <mxGeometry y="130" width="220" height="26" as="geometry" />
        </mxCell>
        <mxCell id="s01bNbvJfiu_EaBTNAyS-113" value="+ base_combo: ttk.ComboBox" style="text;align=left;verticalAlign=top;spacingLeft=4;spacingRight=4;overflow=hidden;rotatable=0;points=[[0,0.5],[1,0.5]];portConstraint=eastwest;" parent="s01bNbvJfiu_EaBTNAyS-107" vertex="1">
          <mxGeometry y="156" width="220" height="26" as="geometry" />
        </mxCell>
        <mxCell id="s01bNbvJfiu_EaBTNAyS-114" value="+ save: tk.Button" style="text;align=left;verticalAlign=top;spacingLeft=4;spacingRight=4;overflow=hidden;rotatable=0;points=[[0,0.5],[1,0.5]];portConstraint=eastwest;" parent="s01bNbvJfiu_EaBTNAyS-107" vertex="1">
          <mxGeometry y="182" width="220" height="26" as="geometry" />
        </mxCell>
        <mxCell id="s01bNbvJfiu_EaBTNAyS-115" value="+ top_label: tk.Label" style="text;align=left;verticalAlign=top;spacingLeft=4;spacingRight=4;overflow=hidden;rotatable=0;points=[[0,0.5],[1,0.5]];portConstraint=eastwest;" parent="s01bNbvJfiu_EaBTNAyS-107" vertex="1">
          <mxGeometry y="208" width="220" height="26" as="geometry" />
        </mxCell>
        <mxCell id="s01bNbvJfiu_EaBTNAyS-116" value="- spicy_beef: tk.BooleanVar" style="text;align=left;verticalAlign=top;spacingLeft=4;spacingRight=4;overflow=hidden;rotatable=0;points=[[0,0.5],[1,0.5]];portConstraint=eastwest;" parent="s01bNbvJfiu_EaBTNAyS-107" vertex="1">
          <mxGeometry y="234" width="220" height="26" as="geometry" />
        </mxCell>
        <mxCell id="s01bNbvJfiu_EaBTNAyS-117" value="- beans: tk.BooleanVar" style="text;align=left;verticalAlign=top;spacingLeft=4;spacingRight=4;overflow=hidden;rotatable=0;points=[[0,0.5],[1,0.5]];portConstraint=eastwest;" parent="s01bNbvJfiu_EaBTNAyS-107" vertex="1">
          <mxGeometry y="260" width="220" height="26" as="geometry" />
        </mxCell>
        <mxCell id="rUo7-Wu-Zcv8M0IQZXfz-9" value="+ cancel: tk.Button" style="text;align=left;verticalAlign=top;spacingLeft=4;spacingRight=4;overflow=hidden;rotatable=0;points=[[0,0.5],[1,0.5]];portConstraint=eastwest;" parent="s01bNbvJfiu_EaBTNAyS-107" vertex="1">
          <mxGeometry y="286" width="220" height="26" as="geometry" />
        </mxCell>
        <mxCell id="s01bNbvJfiu_EaBTNAyS-118" value="" style="line;html=1;strokeWidth=1;align=left;verticalAlign=middle;spacingTop=-1;spacingLeft=3;spacingRight=3;rotatable=0;labelPosition=right;points=[];portConstraint=eastwest;" parent="s01bNbvJfiu_EaBTNAyS-107" vertex="1">
          <mxGeometry y="312" width="220" height="6" as="geometry" />
        </mxCell>
        <mxCell id="s01bNbvJfiu_EaBTNAyS-119" value="+ action_performed(str)" style="text;align=left;verticalAlign=top;spacingLeft=4;spacingRight=4;overflow=hidden;rotatable=0;points=[[0,0.5],[1,0.5]];portConstraint=eastwest;" parent="s01bNbvJfiu_EaBTNAyS-107" vertex="1">
          <mxGeometry y="318" width="220" height="26" as="geometry" />
        </mxCell>
        <mxCell id="s01bNbvJfiu_EaBTNAyS-168" style="edgeStyle=orthogonalEdgeStyle;rounded=0;orthogonalLoop=1;jettySize=auto;html=1;exitX=0.5;exitY=0;exitDx=0;exitDy=0;endArrow=none;endFill=0;" parent="WIyWlLk6GJQsqaUBKTNV-1" source="s01bNbvJfiu_EaBTNAyS-133" edge="1">
          <mxGeometry relative="1" as="geometry">
            <mxPoint x="510" y="1310" as="targetPoint" />
          </mxGeometry>
        </mxCell>
        <mxCell id="s01bNbvJfiu_EaBTNAyS-133" value="MonopolyPanel" style="swimlane;fontStyle=0;align=center;verticalAlign=top;childLayout=stackLayout;horizontal=1;startSize=26;horizontalStack=0;resizeParent=1;resizeLast=0;collapsible=1;marginBottom=0;rounded=0;shadow=0;strokeWidth=1;" parent="WIyWlLk6GJQsqaUBKTNV-1" vertex="1">
          <mxGeometry x="130" y="1360" width="220" height="396" as="geometry">
            <mxRectangle x="550" y="140" width="160" height="26" as="alternateBounds" />
          </mxGeometry>
        </mxCell>
        <mxCell id="s01bNbvJfiu_EaBTNAyS-134" value="- master: PrimaryWindow" style="text;align=left;verticalAlign=top;spacingLeft=4;spacingRight=4;overflow=hidden;rotatable=0;points=[[0,0.5],[1,0.5]];portConstraint=eastwest;rounded=0;shadow=0;html=0;" parent="s01bNbvJfiu_EaBTNAyS-133" vertex="1">
          <mxGeometry y="26" width="220" height="26" as="geometry" />
        </mxCell>
        <mxCell id="s01bNbvJfiu_EaBTNAyS-135" value="- item: Entree" style="text;align=left;verticalAlign=top;spacingLeft=4;spacingRight=4;overflow=hidden;rotatable=0;points=[[0,0.5],[1,0.5]];portConstraint=eastwest;" parent="s01bNbvJfiu_EaBTNAyS-133" vertex="1">
          <mxGeometry y="52" width="220" height="26" as="geometry" />
        </mxCell>
        <mxCell id="s01bNbvJfiu_EaBTNAyS-136" value="- base: tk.Stringvar" style="text;align=left;verticalAlign=top;spacingLeft=4;spacingRight=4;overflow=hidden;rotatable=0;points=[[0,0.5],[1,0.5]];portConstraint=eastwest;" parent="s01bNbvJfiu_EaBTNAyS-133" vertex="1">
          <mxGeometry y="78" width="220" height="26" as="geometry" />
        </mxCell>
        <mxCell id="s01bNbvJfiu_EaBTNAyS-137" value="- toppings: dict" style="text;align=left;verticalAlign=top;spacingLeft=4;spacingRight=4;overflow=hidden;rotatable=0;points=[[0,0.5],[1,0.5]];portConstraint=eastwest;" parent="s01bNbvJfiu_EaBTNAyS-133" vertex="1">
          <mxGeometry y="104" width="220" height="26" as="geometry" />
        </mxCell>
        <mxCell id="s01bNbvJfiu_EaBTNAyS-138" value="+ title: tk.Label" style="text;align=left;verticalAlign=top;spacingLeft=4;spacingRight=4;overflow=hidden;rotatable=0;points=[[0,0.5],[1,0.5]];portConstraint=eastwest;" parent="s01bNbvJfiu_EaBTNAyS-133" vertex="1">
          <mxGeometry y="130" width="220" height="26" as="geometry" />
        </mxCell>
        <mxCell id="s01bNbvJfiu_EaBTNAyS-139" value="+ base_combo: ttk.ComboBox" style="text;align=left;verticalAlign=top;spacingLeft=4;spacingRight=4;overflow=hidden;rotatable=0;points=[[0,0.5],[1,0.5]];portConstraint=eastwest;" parent="s01bNbvJfiu_EaBTNAyS-133" vertex="1">
          <mxGeometry y="156" width="220" height="26" as="geometry" />
        </mxCell>
        <mxCell id="s01bNbvJfiu_EaBTNAyS-140" value="+ save: tk.Button" style="text;align=left;verticalAlign=top;spacingLeft=4;spacingRight=4;overflow=hidden;rotatable=0;points=[[0,0.5],[1,0.5]];portConstraint=eastwest;" parent="s01bNbvJfiu_EaBTNAyS-133" vertex="1">
          <mxGeometry y="182" width="220" height="26" as="geometry" />
        </mxCell>
        <mxCell id="s01bNbvJfiu_EaBTNAyS-141" value="+ top_label: tk.Label" style="text;align=left;verticalAlign=top;spacingLeft=4;spacingRight=4;overflow=hidden;rotatable=0;points=[[0,0.5],[1,0.5]];portConstraint=eastwest;" parent="s01bNbvJfiu_EaBTNAyS-133" vertex="1">
          <mxGeometry y="208" width="220" height="26" as="geometry" />
        </mxCell>
        <mxCell id="s01bNbvJfiu_EaBTNAyS-142" value="- veggies: tk.BooleanVar" style="text;align=left;verticalAlign=top;spacingLeft=4;spacingRight=4;overflow=hidden;rotatable=0;points=[[0,0.5],[1,0.5]];portConstraint=eastwest;" parent="s01bNbvJfiu_EaBTNAyS-133" vertex="1">
          <mxGeometry y="234" width="220" height="26" as="geometry" />
        </mxCell>
        <mxCell id="s01bNbvJfiu_EaBTNAyS-143" value="- spicy_beef: tk.BooleanVar" style="text;align=left;verticalAlign=top;spacingLeft=4;spacingRight=4;overflow=hidden;rotatable=0;points=[[0,0.5],[1,0.5]];portConstraint=eastwest;" parent="s01bNbvJfiu_EaBTNAyS-133" vertex="1">
          <mxGeometry y="260" width="220" height="26" as="geometry" />
        </mxCell>
        <mxCell id="s01bNbvJfiu_EaBTNAyS-144" value="- crispy_chicken: tk.BooleanVar" style="text;align=left;verticalAlign=top;spacingLeft=4;spacingRight=4;overflow=hidden;rotatable=0;points=[[0,0.5],[1,0.5]];portConstraint=eastwest;" parent="s01bNbvJfiu_EaBTNAyS-133" vertex="1">
          <mxGeometry y="286" width="220" height="26" as="geometry" />
        </mxCell>
        <mxCell id="s01bNbvJfiu_EaBTNAyS-145" value="- beans: tk.BooleanVar" style="text;align=left;verticalAlign=top;spacingLeft=4;spacingRight=4;overflow=hidden;rotatable=0;points=[[0,0.5],[1,0.5]];portConstraint=eastwest;" parent="s01bNbvJfiu_EaBTNAyS-133" vertex="1">
          <mxGeometry y="312" width="220" height="26" as="geometry" />
        </mxCell>
        <mxCell id="rUo7-Wu-Zcv8M0IQZXfz-10" value="+ cancel: tk.Button" style="text;align=left;verticalAlign=top;spacingLeft=4;spacingRight=4;overflow=hidden;rotatable=0;points=[[0,0.5],[1,0.5]];portConstraint=eastwest;" parent="s01bNbvJfiu_EaBTNAyS-133" vertex="1">
          <mxGeometry y="338" width="220" height="26" as="geometry" />
        </mxCell>
        <mxCell id="s01bNbvJfiu_EaBTNAyS-146" value="" style="line;html=1;strokeWidth=1;align=left;verticalAlign=middle;spacingTop=-1;spacingLeft=3;spacingRight=3;rotatable=0;labelPosition=right;points=[];portConstraint=eastwest;" parent="s01bNbvJfiu_EaBTNAyS-133" vertex="1">
          <mxGeometry y="364" width="220" height="6" as="geometry" />
        </mxCell>
        <mxCell id="s01bNbvJfiu_EaBTNAyS-147" value="+ action_performed(str)" style="text;align=left;verticalAlign=top;spacingLeft=4;spacingRight=4;overflow=hidden;rotatable=0;points=[[0,0.5],[1,0.5]];portConstraint=eastwest;" parent="s01bNbvJfiu_EaBTNAyS-133" vertex="1">
          <mxGeometry y="370" width="220" height="26" as="geometry" />
        </mxCell>
        <mxCell id="s01bNbvJfiu_EaBTNAyS-167" style="edgeStyle=orthogonalEdgeStyle;rounded=0;orthogonalLoop=1;jettySize=auto;html=1;exitX=0.5;exitY=0;exitDx=0;exitDy=0;endArrow=none;endFill=0;" parent="WIyWlLk6GJQsqaUBKTNV-1" source="s01bNbvJfiu_EaBTNAyS-148" edge="1">
          <mxGeometry relative="1" as="geometry">
            <mxPoint x="800" y="930" as="targetPoint" />
            <Array as="points">
              <mxPoint x="510" y="1310" />
              <mxPoint x="801" y="1310" />
            </Array>
          </mxGeometry>
        </mxCell>
        <mxCell id="s01bNbvJfiu_EaBTNAyS-148" value="YahtzeePanel" style="swimlane;fontStyle=0;align=center;verticalAlign=top;childLayout=stackLayout;horizontal=1;startSize=26;horizontalStack=0;resizeParent=1;resizeLast=0;collapsible=1;marginBottom=0;rounded=0;shadow=0;strokeWidth=1;" parent="WIyWlLk6GJQsqaUBKTNV-1" vertex="1">
          <mxGeometry x="400" y="1360" width="220" height="370" as="geometry">
            <mxRectangle x="550" y="140" width="160" height="26" as="alternateBounds" />
          </mxGeometry>
        </mxCell>
        <mxCell id="s01bNbvJfiu_EaBTNAyS-149" value="- master: PrimaryWindow" style="text;align=left;verticalAlign=top;spacingLeft=4;spacingRight=4;overflow=hidden;rotatable=0;points=[[0,0.5],[1,0.5]];portConstraint=eastwest;rounded=0;shadow=0;html=0;" parent="s01bNbvJfiu_EaBTNAyS-148" vertex="1">
          <mxGeometry y="26" width="220" height="26" as="geometry" />
        </mxCell>
        <mxCell id="s01bNbvJfiu_EaBTNAyS-150" value="- item: Entree" style="text;align=left;verticalAlign=top;spacingLeft=4;spacingRight=4;overflow=hidden;rotatable=0;points=[[0,0.5],[1,0.5]];portConstraint=eastwest;" parent="s01bNbvJfiu_EaBTNAyS-148" vertex="1">
          <mxGeometry y="52" width="220" height="26" as="geometry" />
        </mxCell>
        <mxCell id="s01bNbvJfiu_EaBTNAyS-151" value="- base: tk.Stringvar" style="text;align=left;verticalAlign=top;spacingLeft=4;spacingRight=4;overflow=hidden;rotatable=0;points=[[0,0.5],[1,0.5]];portConstraint=eastwest;" parent="s01bNbvJfiu_EaBTNAyS-148" vertex="1">
          <mxGeometry y="78" width="220" height="26" as="geometry" />
        </mxCell>
        <mxCell id="s01bNbvJfiu_EaBTNAyS-152" value="- toppings: dict" style="text;align=left;verticalAlign=top;spacingLeft=4;spacingRight=4;overflow=hidden;rotatable=0;points=[[0,0.5],[1,0.5]];portConstraint=eastwest;" parent="s01bNbvJfiu_EaBTNAyS-148" vertex="1">
          <mxGeometry y="104" width="220" height="26" as="geometry" />
        </mxCell>
        <mxCell id="s01bNbvJfiu_EaBTNAyS-153" value="+ title: tk.Label" style="text;align=left;verticalAlign=top;spacingLeft=4;spacingRight=4;overflow=hidden;rotatable=0;points=[[0,0.5],[1,0.5]];portConstraint=eastwest;" parent="s01bNbvJfiu_EaBTNAyS-148" vertex="1">
          <mxGeometry y="130" width="220" height="26" as="geometry" />
        </mxCell>
        <mxCell id="s01bNbvJfiu_EaBTNAyS-154" value="+ base_combo: ttk.ComboBox" style="text;align=left;verticalAlign=top;spacingLeft=4;spacingRight=4;overflow=hidden;rotatable=0;points=[[0,0.5],[1,0.5]];portConstraint=eastwest;" parent="s01bNbvJfiu_EaBTNAyS-148" vertex="1">
          <mxGeometry y="156" width="220" height="26" as="geometry" />
        </mxCell>
        <mxCell id="s01bNbvJfiu_EaBTNAyS-155" value="+ save: tk.Button" style="text;align=left;verticalAlign=top;spacingLeft=4;spacingRight=4;overflow=hidden;rotatable=0;points=[[0,0.5],[1,0.5]];portConstraint=eastwest;" parent="s01bNbvJfiu_EaBTNAyS-148" vertex="1">
          <mxGeometry y="182" width="220" height="26" as="geometry" />
        </mxCell>
        <mxCell id="s01bNbvJfiu_EaBTNAyS-156" value="+ top_label: tk.Label" style="text;align=left;verticalAlign=top;spacingLeft=4;spacingRight=4;overflow=hidden;rotatable=0;points=[[0,0.5],[1,0.5]];portConstraint=eastwest;" parent="s01bNbvJfiu_EaBTNAyS-148" vertex="1">
          <mxGeometry y="208" width="220" height="26" as="geometry" />
        </mxCell>
        <mxCell id="s01bNbvJfiu_EaBTNAyS-157" value="- tuna: tk.BooleanVar" style="text;align=left;verticalAlign=top;spacingLeft=4;spacingRight=4;overflow=hidden;rotatable=0;points=[[0,0.5],[1,0.5]];portConstraint=eastwest;" parent="s01bNbvJfiu_EaBTNAyS-148" vertex="1">
          <mxGeometry y="234" width="220" height="26" as="geometry" />
        </mxCell>
        <mxCell id="s01bNbvJfiu_EaBTNAyS-158" value="- seaweed: tk.BooleanVar" style="text;align=left;verticalAlign=top;spacingLeft=4;spacingRight=4;overflow=hidden;rotatable=0;points=[[0,0.5],[1,0.5]];portConstraint=eastwest;" parent="s01bNbvJfiu_EaBTNAyS-148" vertex="1">
          <mxGeometry y="260" width="220" height="26" as="geometry" />
        </mxCell>
        <mxCell id="s01bNbvJfiu_EaBTNAyS-159" value="- veggies: tk.BooleanVar" style="text;align=left;verticalAlign=top;spacingLeft=4;spacingRight=4;overflow=hidden;rotatable=0;points=[[0,0.5],[1,0.5]];portConstraint=eastwest;" parent="s01bNbvJfiu_EaBTNAyS-148" vertex="1">
          <mxGeometry y="286" width="220" height="26" as="geometry" />
        </mxCell>
        <mxCell id="rUo7-Wu-Zcv8M0IQZXfz-11" value="+ cancel: tk.Button" style="text;align=left;verticalAlign=top;spacingLeft=4;spacingRight=4;overflow=hidden;rotatable=0;points=[[0,0.5],[1,0.5]];portConstraint=eastwest;" parent="s01bNbvJfiu_EaBTNAyS-148" vertex="1">
          <mxGeometry y="312" width="220" height="26" as="geometry" />
        </mxCell>
        <mxCell id="s01bNbvJfiu_EaBTNAyS-161" value="" style="line;html=1;strokeWidth=1;align=left;verticalAlign=middle;spacingTop=-1;spacingLeft=3;spacingRight=3;rotatable=0;labelPosition=right;points=[];portConstraint=eastwest;" parent="s01bNbvJfiu_EaBTNAyS-148" vertex="1">
          <mxGeometry y="338" width="220" height="6" as="geometry" />
        </mxCell>
        <mxCell id="s01bNbvJfiu_EaBTNAyS-162" value="+ action_performed(str)" style="text;align=left;verticalAlign=top;spacingLeft=4;spacingRight=4;overflow=hidden;rotatable=0;points=[[0,0.5],[1,0.5]];portConstraint=eastwest;" parent="s01bNbvJfiu_EaBTNAyS-148" vertex="1">
          <mxGeometry y="344" width="220" height="26" as="geometry" />
        </mxCell>
      </root>
    </mxGraphModel>
  </diagram>
</mxfile>
